<svg xmlns="http://www.w3.org/2000/svg" viewBox="0 0 32 32"><defs><style>.cls-1{fill:#007933;}.cls-2{fill:#fff;}</style></defs><g id="Layer_2" data-name="Layer 2"><g id="Layer_1-2" data-name="Layer 1"><rect class="cls-1" width="32" height="32"/><path class="cls-2" d="M2.15,14.42l5.76-2.23v2.09l-2.49.87v0L7.91,16v2.09L2.15,15.9Z"/><path class="cls-2" d="M8.68,16.31a3.45,3.45,0,0,0,1.22.28.72.72,0,0,0,.82-.79V11.18H14v4.73a3.38,3.38,0,0,1-.9,2.54,3.66,3.66,0,0,1-2.55.81,4.21,4.21,0,0,1-1.87-.37Z"/><path class="cls-2" d="M15,11.18h3.28v2.46h1.65V11.18h3.28v8H19.89v-2.9H18.24v2.9H15Z"/><path class="cls-2" d="M24.09,16l2.49-.87v0l-2.49-.87V12.19l5.76,2.23V15.9l-5.76,2.23Z"/></g></g></svg>