<svg xmlns="http://www.w3.org/2000/svg" viewBox="0 0 132.37 139.31"><defs><style>.cls-1{fill:#007933;}.cls-2{fill:#edc620;}</style></defs><g id="Layer_2" data-name="Layer 2"><g id="Layer_1-2" data-name="Layer 1"><path class="cls-1" d="M125.84,39H6.53A6.54,6.54,0,0,1,0,32.49v-26A6.54,6.54,0,0,1,6.53,0H125.84a6.54,6.54,0,0,1,6.53,6.53v26A6.54,6.54,0,0,1,125.84,39ZM8,31H124.37V8H8Z"/><path class="cls-2" d="M46.55,23.51h-28a4,4,0,1,1,0-8h28a4,4,0,0,1,0,8Z"/><path class="cls-2" d="M112.55,23.51H100.91a4,4,0,1,1,0-8h11.64a4,4,0,0,1,0,8Z"/><path class="cls-1" d="M125.84,89.17H6.53A6.54,6.54,0,0,1,0,82.64v-26a6.54,6.54,0,0,1,6.53-6.53H125.84a6.54,6.54,0,0,1,6.53,6.53v26A6.54,6.54,0,0,1,125.84,89.17ZM8,81.17H124.37v-23H8Z"/><path class="cls-2" d="M46.55,73.66h-28a4,4,0,1,1,0-8h28a4,4,0,0,1,0,8Z"/><path class="cls-2" d="M112.55,73.66H100.91a4,4,0,0,1,0-8h11.64a4,4,0,0,1,0,8Z"/><path class="cls-1" d="M125.84,139.31H6.53A6.54,6.54,0,0,1,0,132.78V106.83a6.54,6.54,0,0,1,6.53-6.54H125.84a6.54,6.54,0,0,1,6.53,6.54v26A6.54,6.54,0,0,1,125.84,139.31ZM8,131.31H124.37v-23H8Z"/><path class="cls-2" d="M46.55,123.8h-28a4,4,0,0,1,0-8h28a4,4,0,0,1,0,8Z"/><path class="cls-2" d="M112.55,123.8H100.91a4,4,0,0,1,0-8h11.64a4,4,0,0,1,0,8Z"/></g></g></svg>