<svg xmlns="http://www.w3.org/2000/svg" viewBox="0 0 121.08 199"><defs><style>.cls-1{fill:#007933;}.cls-2{fill:#edc620;}</style></defs><g id="Layer_2" data-name="Layer 2"><g id="Layer_1-2" data-name="Layer 1"><path class="cls-1" d="M121.08,60.54A60.77,60.77,0,0,0,102,16.43,60.07,60.07,0,0,0,56.69.12C26.11,2,1.24,27.51.05,58.15a60.11,60.11,0,0,0,16.31,43.78c8.33,8.88,12.24,14.07,12.82,24a16.44,16.44,0,0,0-6.43,27.55,16.44,16.44,0,0,0,11.37,28.31h5.8a21,21,0,0,0,41.24,0H87a16.44,16.44,0,0,0,11.37-28.31,16.44,16.44,0,0,0-6.43-27.55c.64-10.41,5-15.58,13-24.15A60.31,60.31,0,0,0,121.08,60.54ZM60.54,189.85a11.81,11.81,0,0,1-11.2-8.07H71.75A11.82,11.82,0,0,1,60.54,189.85ZM87,172.64H34.12a7.3,7.3,0,0,1,0-14.59H87a7.3,7.3,0,0,1,0,14.59Zm7.29-31A7.31,7.31,0,0,1,87,148.9H34.12a7.3,7.3,0,0,1,0-14.59H87A7.3,7.3,0,0,1,94.25,141.6ZM82.78,125.16H38.3c-.83-13.18-6.4-20-15.25-29.48A51,51,0,0,1,9.2,58.5c1-26,22.11-47.62,48.05-49.24A51.38,51.38,0,0,1,98.16,95.54C89.25,105.13,83.63,112.08,82.78,125.16Z"/><path class="cls-2" d="M82.84,51.62A16.91,16.91,0,0,0,66,68.51v7.75H55.13V68.51A16.9,16.9,0,1,0,38.24,85.4H46v39.76h9.15V85.4H66v39.76h9.16V85.4h7.73a16.89,16.89,0,1,0,0-33.78ZM46,76.26H38.24A7.74,7.74,0,1,1,46,68.51Zm36.86,0H75.11V68.51a7.74,7.74,0,1,1,7.73,7.75Z"/></g></g></svg>