<svg xmlns="http://www.w3.org/2000/svg" viewBox="0 0 112.54 195.47"><defs><style>.cls-1{fill:#007933;stroke:#007933;stroke-miterlimit:10;stroke-width:3px;}.cls-2{fill:none;stroke:#edc620;stroke-linecap:round;stroke-linejoin:round;stroke-width:12px;}</style></defs><g id="Layer_2" data-name="Layer 2"><g id="Layer_1-2" data-name="Layer 1"><path class="cls-1" d="M111,20.67A19.15,19.15,0,0,0,91.87,1.5H20.67A19.15,19.15,0,0,0,1.5,20.67V174.8A19.15,19.15,0,0,0,20.67,194h71.2A19.15,19.15,0,0,0,111,174.8ZM8.54,34.36H104V150.55H8.54ZM91.91,186.93H20.63A12.18,12.18,0,0,1,8.54,174.72V157.59H104v17.13A12.17,12.17,0,0,1,91.91,186.93ZM104,20.75v6.57H8.54V20.75A12.18,12.18,0,0,1,20.63,8.54H91.91A12.17,12.17,0,0,1,104,20.75Z"/><path class="cls-1" d="M65.81,168.93H46.72a3.52,3.52,0,1,0,0,7H65.81a3.52,3.52,0,0,0,0-7Z"/><polyline class="cls-2" points="41.45 76.97 56.95 61.47 56.95 120.97"/><line class="cls-2" x1="44.73" y1="120.97" x2="68.45" y2="120.97"/></g></g></svg>