<svg xmlns="http://www.w3.org/2000/svg" viewBox="0 0 166.66 102.38"><defs><style>.cls-1{fill:#007933;}.cls-1,.cls-2{fill-rule:evenodd;}.cls-2{fill:#edc620;}</style></defs><g id="Layer_2" data-name="Layer 2"><g id="Layer_1-2" data-name="Layer 1"><path class="cls-1" d="M102.38,5.12h0a5.12,5.12,0,0,1-5.12,5.12H5.12A5.12,5.12,0,0,1,0,5.12H0A5.12,5.12,0,0,1,5.12,0H97.26A5.12,5.12,0,0,1,102.38,5.12Z"/><path class="cls-1" d="M92.15,35.83h0A5.12,5.12,0,0,1,87,41H5.12A5.12,5.12,0,0,1,0,35.83H0a5.11,5.11,0,0,1,5.12-5.11H87A5.12,5.12,0,0,1,92.15,35.83Z"/><path class="cls-1" d="M76.79,66.55h0a5.12,5.12,0,0,1-5.12,5.12H5.12A5.12,5.12,0,0,1,0,66.55H0a5.12,5.12,0,0,1,5.12-5.12H71.67A5.12,5.12,0,0,1,76.79,66.55Z"/><path class="cls-1" d="M61.43,97.26h0a5.12,5.12,0,0,1-5.12,5.12H5.12A5.12,5.12,0,0,1,0,97.26H0a5.11,5.11,0,0,1,5.12-5.11H56.31A5.11,5.11,0,0,1,61.43,97.26Z"/><path class="cls-2" d="M114.49,71.92h0a5.12,5.12,0,0,1,7.24,0l21.71,21.72a5.12,5.12,0,0,1,0,7.24h0a5.12,5.12,0,0,1-7.24,0L114.49,79.16A5.12,5.12,0,0,1,114.49,71.92Z"/><path class="cls-2" d="M165.16,71.92h0a5.12,5.12,0,0,1,0,7.24l-21.72,21.72a5.12,5.12,0,0,1-7.24,0h0a5.14,5.14,0,0,1,0-7.24l21.72-21.72A5.12,5.12,0,0,1,165.16,71.92Z"/><path class="cls-2" d="M139.82,0h0a5.12,5.12,0,0,1,5.12,5.12V97.26a5.12,5.12,0,0,1-5.12,5.12h0a5.11,5.11,0,0,1-5.11-5.12V5.12A5.11,5.11,0,0,1,139.82,0Z"/></g></g></svg>