<svg xmlns="http://www.w3.org/2000/svg" viewBox="0 0 151.2 152.86"><defs><style>.cls-1{fill:#edc620;}.cls-2{fill:#007933;}</style></defs><g id="Layer_2" data-name="Layer 2"><g id="Layer_1-2" data-name="Layer 1"><path class="cls-1" d="M49.71.28A10.19,10.19,0,0,1,61.12,6C72.8,28,84.5,50.09,96,72.24a24.39,24.39,0,0,1,2.76,15.63,21.45,21.45,0,0,1-38.25,8.61c-3.33-4.34-4.32-9.85-5.46-15.06C50.9,58.33,46.52,35.28,42.32,12.2,41.14,7.09,44.5,1.35,49.71.28m3.41,12.56c3.79,22.24,8.2,44.38,12.16,66.59,1.07,4.32,1.48,9.39,5.15,12.42,4.57,4,12.57,3.63,16.09-1.6,3-3.53,2.65-8.63.59-12.52C76,56,64.27,34.57,53.12,12.84Z"/><path class="cls-2" d="M74.16,1.15l1.6-.44A74.81,74.81,0,0,1,121,15.94,76.26,76.26,0,0,1,95.73,150.1C73.4,156.5,48.34,151.53,30,137.4A76.6,76.6,0,0,1,.21,82.23C-1.63,57.91,8.87,32.86,28.06,17.68c3.14-2.12,7.8.5,7.82,4.22.28,2.92-2.38,4.67-4.23,6.42A65.4,65.4,0,0,0,10.46,77.74c0,24.72,15.48,48.58,38,58.68a65,65,0,0,0,81.6-23.59,65.93,65.93,0,0,0-6.39-80.4C111.69,19,93.85,11.29,75.88,11,70.78,10.93,69.46,3,74.16,1.15Z"/></g></g></svg>