<svg xmlns="http://www.w3.org/2000/svg" viewBox="0 0 118.03 172.37"><defs><style>.cls-1{fill:#007933;}.cls-2{fill:#edc620;fill-rule:evenodd;}</style></defs><g id="Layer_2" data-name="Layer 2"><g id="Layer_1-2" data-name="Layer 1"><path class="cls-1" d="M59,94.94c-15.07,0-29.29-1.75-40-5C3.29,85.33,0,79.05,0,74.6S3.29,63.87,19,59.21a4,4,0,1,1,2.28,7.67C10.38,70.11,8,73.55,8,74.6,8,79,27.37,86.94,59,86.94c14.33,0,27.74-1.64,37.77-4.62C107.65,79.09,110,75.65,110,74.6S107.6,70,96.49,66.79a4,4,0,1,1,2.25-7.67C114.68,63.78,118,70.11,118,74.6s-3.29,10.73-19,15.39C88.31,93.19,74.09,94.94,59,94.94Z"/><path class="cls-1" d="M59,172.37c-15.07,0-29.29-1.76-40-5C3.29,162.76,0,156.48,0,152V74.6H8C8,79,27.37,86.94,59,86.94c14.33,0,27.74-1.64,37.77-4.62C107.65,79.09,110,75.65,110,74.6h8V152c0,4.45-3.29,10.73-19,15.39C88.31,170.61,74.09,172.37,59,172.37ZM8,85.48V152c0,4.35,19.37,12.34,51,12.34,14.32,0,27.74-1.64,37.77-4.62C107.65,156.52,110,153.08,110,152V85.48a50,50,0,0,1-11,4.51c-10.75,3.2-25,5-40.05,5s-29.29-1.75-40-5A50,50,0,0,1,8,85.48Z"/><path class="cls-1" d="M59,120.25c-15.07,0-29.29-1.76-40-5C3.29,110.63,0,104.35,0,99.9a4,4,0,0,1,8,0c0,4.35,19.37,12.35,51,12.35,14.32,0,27.73-1.65,37.77-4.63C107.65,104.39,110,101,110,99.9a4,4,0,0,1,8,0c0,4.45-3.29,10.73-19,15.39C88.3,118.49,74.08,120.25,59,120.25Z"/><path class="cls-1" d="M59,147.07c-15.07,0-29.29-1.76-40-4.95C3.29,137.46,0,131.18,0,126.73a4,4,0,0,1,8,0c0,4.35,19.37,12.34,51,12.34,14.32,0,27.73-1.64,37.77-4.62,10.87-3.23,13.25-6.67,13.25-7.72a4,4,0,1,1,8,0c0,4.45-3.29,10.73-19,15.39C88.3,145.31,74.08,147.07,59,147.07Z"/><path class="cls-2" d="M40.55,52.41h0a3.73,3.73,0,0,1,5.28,0L61.65,68.23a3.73,3.73,0,0,1,0,5.28h0a3.75,3.75,0,0,1-5.28,0L40.55,57.68A3.74,3.74,0,0,1,40.55,52.41Z"/><path class="cls-2" d="M77.48,52.41h0a3.74,3.74,0,0,1,0,5.27L61.65,73.51a3.75,3.75,0,0,1-5.28,0h0a3.75,3.75,0,0,1,0-5.28L72.2,52.41A3.73,3.73,0,0,1,77.48,52.41Z"/><path class="cls-2" d="M59,0h0a3.73,3.73,0,0,1,3.73,3.73V70.87A3.73,3.73,0,0,1,59,74.6h0a3.72,3.72,0,0,1-3.72-3.72h0V3.73A3.71,3.71,0,0,1,59,0Z"/></g></g></svg>